<svg id="Capa_1" enable-background="new 0 0 510 510" height="512" viewBox="0 0 510 510" width="512" xmlns="http://www.w3.org/2000/svg"><g><path d="m255 90c-90.981 0-165 74.019-165 165s74.019 165 165 165l10-165z" fill="#fce867"/><g><path d="m384.099 80.901h60v30h-60z" fill="#a4c6cb" transform="matrix(.707 -.707 .707 .707 53.475 320.901)"/></g><g><path d="m65.901 399.099h60v30h-60z" fill="#d3dce3" transform="matrix(.707 -.707 .707 .707 -264.724 189.099)"/></g><g><path d="m450 240h60v30h-60z" fill="#a4c6cb"/></g><g><path d="m0 240h60v30h-60z" fill="#d3dce3"/></g><g><path d="m399.099 384.099h30v60h-30z" fill="#a4c6cb" transform="matrix(.707 -.707 .707 .707 -171.526 414.1)"/></g><g><path d="m80.901 65.901h30v60h-30z" fill="#d3dce3" transform="matrix(.707 -.707 .707 .707 -39.724 95.902)"/></g><g fill="#ffc24c"><path d="m393.225 165c-29.479-45.119-80.424-75-138.225-75v75l61 10z"/><path d="m255 285 69.112 10 93.146-10c3.546-19.223 3.764-39.595 0-60l-88.926-10-73.332 10z"/><path d="m255 420c57.801 0 108.746-29.881 138.225-75l-78.225-10-60 10z"/></g><path d="m255 225h162.259c-4.02-21.792-12.336-42.095-24.034-60h-138.225z" fill="#ff9935"/><path d="m255 285v60h138.225c11.698-17.905 20.015-38.208 24.034-60z" fill="#ff9935"/><path d="m240 0v60h15l10-30-10-30z" fill="#d3dce3"/><path d="m255 0h15v60h-15z" fill="#a4c6cb"/><path d="m240 450v60h15l10-30-10-30z" fill="#d3dce3"/><path d="m255 450h15v60h-15z" fill="#a4c6cb"/></g></svg>